<svg xmlns="http://www.w3.org/2000/svg" width="1400" height="724"
    viewBox="0 0 1400 724" role="img"
    aria-label="Styled-components transform stage shares">
    <style>
      .title { fill: #e5e7eb; font: 700 24px system-ui, sans-serif; }
      .label { fill: #d1d5db; font: 600 20px system-ui, sans-serif; }
      .legend { fill: #d1d5db; font: 16px system-ui, sans-serif; }
      .axis { fill: #9ca3af; font: 14px ui-monospace, monospace; }
    </style>
    <rect width="100%" height="100%" rx="14" fill="#111827" />
    <text x="36" y="42" class="title">Pipeline stage share</text>
    <text x="240" y="118" text-anchor="end" class="label">
        Babel + JS plugin
      </text>
      <g clip-path="url(#row-0)">
<rect x="260.00" y="78" width="32.47"
        height="66" fill="#38bdf8"><title>Parse:
        3.0%</title></rect>


<rect x="292.47" y="78" width="893.93"
        height="66" fill="#8b5cf6"><title>Babel JS plugin:
        82.8%</title></rect>


<rect x="1186.40" y="78" width="153.60"
        height="66" fill="#84cc16"><title>Codegen:
        14.2%</title></rect>
</g>
      <clipPath id="row-0"><rect x="260" y="78"
        width="1080" height="66" rx="8" /></clipPath>

      <text x="240" y="232" text-anchor="end" class="label">
        SWC + WASM plugin
      </text>
      <g clip-path="url(#row-1)">

<rect x="260.00" y="192" width="183.24"
        height="66" fill="#60a5fa"><title>Parse + AST transfer:
        17.0%</title></rect>





<rect x="443.24" y="192" width="896.76"
        height="66" fill="#2563eb"><title>AST transfer + WASM plugin + codegen:
        83.0%</title></rect></g>
      <clipPath id="row-1"><rect x="260" y="192"
        width="1080" height="66" rx="8" /></clipPath>

      <text x="240" y="346" text-anchor="end" class="label">
        Yuku + JS plugin
      </text>
      <g clip-path="url(#row-2)"><rect x="260.00" y="306" width="7.60"
        height="66" fill="#facc15"><title>Source encode:
        0.7%</title></rect>
<rect x="267.60" y="306" width="31.75"
        height="66" fill="#38bdf8"><title>Parse:
        2.9%</title></rect>

<rect x="299.34" y="306" width="30.76"
        height="66" fill="#34d399"><title>AST decode:
        2.8%</title></rect>

<rect x="330.10" y="306" width="724.82"
        height="66" fill="#ec4899"><title>Yuku JS plugin:
        67.1%</title></rect>
<rect x="1054.92" y="306" width="227.30"
        height="66" fill="#fb923c"><title>AST encode:
        21.0%</title></rect>
<rect x="1282.22" y="306" width="57.78"
        height="66" fill="#84cc16"><title>Codegen:
        5.3%</title></rect>
</g>
      <clipPath id="row-2"><rect x="260" y="306"
        width="1080" height="66" rx="8" /></clipPath>

      <text x="240" y="460" text-anchor="end" class="label">
        OXC + Yuku JS plugin
      </text>
      <g clip-path="url(#row-3)">

<rect x="260.00" y="420" width="76.65"
        height="66" fill="#60a5fa"><title>Parse + AST transfer:
        7.1%</title></rect>


<rect x="336.65" y="420" width="965.21"
        height="66" fill="#ec4899"><title>Yuku JS plugin:
        89.4%</title></rect>

<rect x="1301.86" y="420" width="38.14"
        height="66" fill="#84cc16"><title>Codegen:
        3.5%</title></rect>
</g>
      <clipPath id="row-3"><rect x="260" y="420"
        width="1080" height="66" rx="8" /></clipPath>
    <text x="260" y="534" class="axis">0%</text>
    <text x="800" y="534"
      text-anchor="middle" class="axis">50%</text>
    <text x="1340" y="534"
      text-anchor="end" class="axis">100%</text>
    <rect x="60" y="559" width="20" height="20" rx="4"
        fill="#facc15" />
      <text x="90" y="575" class="legend">Source encode</text>

      <rect x="500" y="559" width="20" height="20" rx="4"
        fill="#38bdf8" />
      <text x="530" y="575" class="legend">Parse</text>

      <rect x="940" y="559" width="20" height="20" rx="4"
        fill="#60a5fa" />
      <text x="970" y="575" class="legend">Parse + AST transfer</text>

      <rect x="60" y="601" width="20" height="20" rx="4"
        fill="#34d399" />
      <text x="90" y="617" class="legend">AST decode</text>

      <rect x="500" y="601" width="20" height="20" rx="4"
        fill="#8b5cf6" />
      <text x="530" y="617" class="legend">Babel JS plugin</text>

      <rect x="940" y="601" width="20" height="20" rx="4"
        fill="#ec4899" />
      <text x="970" y="617" class="legend">Yuku JS plugin</text>

      <rect x="60" y="643" width="20" height="20" rx="4"
        fill="#fb923c" />
      <text x="90" y="659" class="legend">AST encode</text>

      <rect x="500" y="643" width="20" height="20" rx="4"
        fill="#84cc16" />
      <text x="530" y="659" class="legend">Codegen</text>

      <rect x="940" y="643" width="20" height="20" rx="4"
        fill="#2563eb" />
      <text x="970" y="659" class="legend">AST transfer + WASM plugin + codegen</text>
  </svg>
